<svg width="16" height="14" viewBox="0 0 16 14" fill="none" xmlns="http://www.w3.org/2000/svg">
<path d="M3.33202 1L1.33202 3L3.33202 1Z" fill="#E0E0E0"/>
<path d="M14.6654 3L12.6654 1L14.6654 3Z" fill="#E0E0E0"/>
<path d="M3.99869 11.6667L2.66536 13L3.99869 11.6667Z" fill="#E0E0E0"/>
<path d="M11.9987 11.6667L13.332 13L11.9987 11.6667Z" fill="#E0E0E0"/>
<path d="M7.99869 13C9.41318 13 10.7697 12.4381 11.7699 11.4379C12.7701 10.4377 13.332 9.08115 13.332 7.66667C13.332 6.25218 12.7701 4.89562 11.7699 3.89543C10.7697 2.89524 9.41318 2.33333 7.99869 2.33333C6.5842 2.33333 5.22765 2.89524 4.22745 3.89543C3.22726 4.89562 2.66536 6.25218 2.66536 7.66667C2.66536 9.08115 3.22726 10.4377 4.22745 11.4379C5.22765 12.4381 6.5842 13 7.99869 13Z" fill="#E0E0E0"/>
<path d="M3.33202 1L1.33202 3M14.6654 3L12.6654 1M3.99869 11.6667L2.66536 13M11.9987 11.6667L13.332 13M5.99869 8L7.33202 9.33333L10.332 6.33333M7.99869 13C9.41318 13 10.7697 12.4381 11.7699 11.4379C12.7701 10.4377 13.332 9.08116 13.332 7.66667C13.332 6.25218 12.7701 4.89562 11.7699 3.89543C10.7697 2.89524 9.41318 2.33333 7.99869 2.33333C6.5842 2.33333 5.22765 2.89524 4.22745 3.89543C3.22726 4.89562 2.66536 6.25218 2.66536 7.66667C2.66536 9.08116 3.22726 10.4377 4.22745 11.4379C5.22765 12.4381 6.5842 13 7.99869 13Z" stroke="#3E3D45" stroke-width="1.3" stroke-linecap="round" stroke-linejoin="round"/>
</svg>
