<svg width="15" height="13" viewBox="0 0 15 13" fill="none" xmlns="http://www.w3.org/2000/svg">
<path d="M11.5952 10.1051C11.409 9.55114 10.9749 9.27043 10.5559 8.99899C10.1912 8.76264 9.84685 8.53931 9.62166 8.13833C9.00091 7.02763 8.65995 6.35742 7.643 6.35742C6.62605 6.35742 6.28403 7.02786 5.6618 8.13811C5.4364 8.53997 5.09036 8.76374 4.72527 9.00053C4.30622 9.27219 3.87298 9.55224 3.6861 10.1051C3.61336 10.3044 3.57676 10.5161 3.57816 10.7294C3.57816 11.6284 4.26494 12.36 5.02581 12.36C5.78667 12.36 6.78901 11.9599 7.64511 11.9599C8.50121 11.9599 9.48959 12.36 10.26 12.36C11.0304 12.36 11.7053 11.6284 11.7053 10.7294C11.7059 10.516 11.6686 10.3043 11.5952 10.1051Z" fill="#E0E0E0" stroke="#3E3D45" stroke-width="1.13262" stroke-linecap="round" stroke-linejoin="round"/>
<path d="M3.27189 7.54986C3.89979 7.28256 4.15474 6.34825 3.84133 5.46302C3.52792 4.57779 2.76483 4.07685 2.13692 4.34414C1.50901 4.61144 1.25407 5.54575 1.56748 6.43098C1.88089 7.31621 2.64398 7.81715 3.27189 7.54986Z" fill="#E0E0E0" stroke="#3E3D45" stroke-width="1.13262" stroke-linecap="round" stroke-linejoin="round"/>
<path d="M12.2554 7.54986C11.6275 7.28256 11.3726 6.34825 11.686 5.46302C11.9994 4.57779 12.7625 4.07685 13.3904 4.34414C14.0183 4.61144 14.2733 5.54575 13.9599 6.43098C13.6464 7.31621 12.8834 7.81715 12.2554 7.54986Z" fill="#E0E0E0" stroke="#3E3D45" stroke-width="1.13262" stroke-linecap="round" stroke-linejoin="round"/>
<path d="M6.03995 4.96751C6.76037 4.80809 7.19286 3.8555 7.00593 2.83983C6.819 1.82417 6.08345 1.13005 5.36303 1.28947C4.64261 1.44889 4.21012 2.40148 4.39705 3.41715C4.58398 4.43281 5.31953 5.12693 6.03995 4.96751Z" fill="#E0E0E0" stroke="#3E3D45" stroke-width="1.13262" stroke-linecap="round" stroke-linejoin="round"/>
<path d="M9.48348 4.96751C8.76306 4.80809 8.33057 3.8555 8.5175 2.83983C8.70443 1.82417 9.43998 1.13005 10.1604 1.28947C10.8808 1.44889 11.3133 2.40148 11.1264 3.41715C10.9395 4.43281 10.2039 5.12693 9.48348 4.96751Z" fill="#E0E0E0" stroke="#3E3D45" stroke-width="1.13262" stroke-linecap="round" stroke-linejoin="round"/>
</svg>
