<svg width="24" height="24" viewBox="0 0 24 24" fill="none" xmlns="http://www.w3.org/2000/svg">
<g clip-path="url(#clip0_1_906)">
<path d="M11.2533 3.97526L11.489 4.14176C11.7998 4.36091 12.2191 4.35656 12.525 4.13099C14.1187 2.95613 16.1811 2.61425 18.0704 3.21114C21.48 4.29216 23.0317 8.01857 21.8356 11.6776C21.1868 13.5181 20.0769 15.1956 18.6666 16.5772L18.0699 17.1763C16.7799 18.3568 15.0759 19.577 13.475 20.6401C12.5659 21.2438 11.3852 21.2592 10.4723 20.6613C8.62411 19.4506 6.95577 18.161 5.29968 16.5772C3.89686 15.2028 2.82294 13.5181 2.16789 11.6592C0.976884 8.01509 2.52182 4.2913 5.92959 3.21087C7.72902 2.64087 9.69077 2.92347 11.2533 3.97526Z" stroke="#171717" stroke-opacity="0.3" stroke-width="2"/>
<path d="M14.6506 6.99817C14.8096 6.48725 15.3419 6.20537 15.8396 6.36858C17.5489 6.92909 18.761 8.50134 18.9123 10.3485C18.9561 10.883 18.5695 11.3527 18.0488 11.3976C17.5282 11.4425 17.0706 11.0457 17.0269 10.5112C16.9395 9.44416 16.2421 8.53957 15.2639 8.21879C14.7662 8.05558 14.4916 7.50909 14.6506 6.99817Z" fill="#171717" fill-opacity="0.3"/>
</g>
<defs>
<clipPath id="clip0_1_906">
<rect width="24" height="24" fill="white"/>
</clipPath>
</defs>
</svg>
