<svg width="24" height="24" viewBox="0 0 24 24" fill="none" xmlns="http://www.w3.org/2000/svg">
<path d="M12 3C12.7017 3 13.3872 3.21011 14.3135 3.74121C15.0276 4.15066 15.835 4.72064 16.8623 5.47754L17.9678 6.29785C18.8257 6.93682 19.4217 7.38187 19.8633 7.76953C20.2938 8.14748 20.5215 8.42391 20.668 8.69922C20.9735 9.27335 21 9.93275 21 11.9512V13.4424C21 15.4923 20.9972 16.9127 20.8291 17.9824C20.6684 19.0052 20.3763 19.5675 19.8857 19.9873C19.3726 20.4264 18.6482 20.7028 17.3721 20.8496C16.081 20.9981 14.3813 21 12 21C9.6187 21 7.91895 20.9981 6.62793 20.8496C5.51132 20.7211 4.81714 20.4937 4.31738 20.1445L4.11426 19.9873C3.6237 19.5675 3.33161 19.0052 3.1709 17.9824C3.00284 16.9127 3 15.4923 3 13.4424V11.9512L3.00879 10.6719C3.03067 9.60833 3.10293 9.12976 3.33203 8.69922C3.47853 8.42391 3.70623 8.14748 4.13672 7.76953C4.35744 7.57575 4.61645 7.36736 4.92773 7.12793L6.03223 6.29785C7.61608 5.11817 8.73437 4.28717 9.68652 3.74121C10.6128 3.21011 11.2983 3 12 3Z" stroke="#171717" stroke-opacity="0.3" stroke-width="2"/>
<path d="M16.1758 13.4727C16.1758 13.4727 15.318 16.3878 11.998 16.3878C8.67809 16.3878 7.82031 13.4727 7.82031 13.4727" stroke="#171717" stroke-opacity="0.3" stroke-width="2" stroke-linecap="round"/>
</svg>
