<svg width="122" height="40" viewBox="0 0 122 40" fill="none" xmlns="http://www.w3.org/2000/svg">
<rect width="122" height="40" rx="14" fill="#171717"/>
<path d="M30.7924 25.1278L33.2109 28.2012L38.6566 22.7366" stroke="white" stroke-width="2" stroke-linecap="round" stroke-linejoin="round"/>
<rect x="19.1328" y="10.498" width="7.67188" height="7.67578" rx="3" stroke="white" stroke-width="2" stroke-linecap="round"/>
<rect x="19.1328" y="21.4961" width="7.67188" height="7.67578" rx="3" stroke="white" stroke-width="2" stroke-linecap="round"/>
<rect x="30.1875" y="10.498" width="7.67188" height="7.67578" rx="3" stroke="white" stroke-width="2" stroke-linecap="round"/>
<path d="M45.5942 24.5V18.152H47.2382L47.2982 20.192L47.0102 19.76C47.1142 19.44 47.2702 19.148 47.4782 18.884C47.6942 18.62 47.9462 18.412 48.2342 18.26C48.5302 18.1 48.8382 18.02 49.1582 18.02C49.3022 18.02 49.4342 18.032 49.5542 18.056C49.6822 18.072 49.7902 18.1 49.8782 18.14L49.4222 20C49.3342 19.96 49.2182 19.924 49.0742 19.892C48.9382 19.852 48.7982 19.832 48.6542 19.832C48.4702 19.832 48.2942 19.868 48.1262 19.94C47.9662 20.004 47.8222 20.1 47.6942 20.228C47.5742 20.348 47.4782 20.492 47.4062 20.66C47.3422 20.828 47.3102 21.016 47.3102 21.224V24.5H45.5942ZM53.5984 24.62C52.9104 24.62 52.3064 24.48 51.7864 24.2C51.2744 23.92 50.8744 23.536 50.5864 23.048C50.3064 22.56 50.1664 22.004 50.1664 21.38C50.1664 20.884 50.2464 20.432 50.4064 20.024C50.5664 19.608 50.7904 19.252 51.0784 18.956C51.3664 18.66 51.7064 18.432 52.0984 18.272C52.4984 18.104 52.9344 18.02 53.4064 18.02C53.8384 18.02 54.2344 18.1 54.5944 18.26C54.9624 18.412 55.2784 18.632 55.5424 18.92C55.8144 19.2 56.0224 19.532 56.1664 19.916C56.3104 20.3 56.3784 20.72 56.3704 21.176L56.3584 21.704H51.2584L50.9824 20.648H54.9544L54.7504 20.864V20.612C54.7344 20.388 54.6624 20.192 54.5344 20.024C54.4144 19.856 54.2584 19.724 54.0664 19.628C53.8744 19.524 53.6624 19.472 53.4304 19.472C53.0704 19.472 52.7664 19.544 52.5184 19.688C52.2784 19.824 52.0944 20.024 51.9664 20.288C51.8464 20.544 51.7864 20.864 51.7864 21.248C51.7864 21.624 51.8664 21.956 52.0264 22.244C52.1864 22.524 52.4144 22.74 52.7104 22.892C53.0144 23.044 53.3704 23.12 53.7784 23.12C54.0584 23.12 54.3144 23.076 54.5464 22.988C54.7784 22.9 55.0304 22.748 55.3024 22.532L56.1064 23.672C55.8824 23.872 55.6304 24.044 55.3504 24.188C55.0704 24.332 54.7824 24.44 54.4864 24.512C54.1904 24.584 53.8944 24.62 53.5984 24.62ZM57.6173 24.5V18.152H59.2613L59.2973 19.364L59.0453 19.436C59.1253 19.228 59.2373 19.04 59.3813 18.872C59.5333 18.696 59.7053 18.548 59.8973 18.428C60.0893 18.308 60.2933 18.212 60.5093 18.14C60.7333 18.068 60.9533 18.032 61.1693 18.032C61.5053 18.032 61.8013 18.084 62.0573 18.188C62.3213 18.292 62.5453 18.456 62.7293 18.68C62.9133 18.904 63.0533 19.196 63.1493 19.556L62.8973 19.508L62.9813 19.328C63.0853 19.144 63.2173 18.972 63.3773 18.812C63.5373 18.652 63.7173 18.516 63.9173 18.404C64.1173 18.284 64.3253 18.192 64.5413 18.128C64.7573 18.064 64.9693 18.032 65.1773 18.032C65.6733 18.032 66.0813 18.132 66.4013 18.332C66.7293 18.532 66.9733 18.828 67.1333 19.22C67.3013 19.604 67.3853 20.084 67.3853 20.66V24.5H65.6813V20.78C65.6813 20.348 65.5933 20.028 65.4173 19.82C65.2493 19.612 64.9893 19.508 64.6373 19.508C64.4533 19.508 64.2813 19.54 64.1213 19.604C63.9613 19.66 63.8253 19.744 63.7133 19.856C63.6013 19.968 63.5133 20.096 63.4493 20.24C63.3853 20.384 63.3533 20.544 63.3533 20.72V24.5H61.6493V20.756C61.6493 20.356 61.5573 20.048 61.3733 19.832C61.1973 19.616 60.9413 19.508 60.6053 19.508C60.4293 19.508 60.2613 19.54 60.1013 19.604C59.9413 19.66 59.8053 19.744 59.6933 19.856C59.5813 19.96 59.4933 20.088 59.4293 20.24C59.3653 20.384 59.3333 20.544 59.3333 20.72V24.5H57.6173ZM69.1523 24.5V18.152H70.8563V24.5H69.1523ZM69.9923 16.844C69.6643 16.844 69.4083 16.764 69.2243 16.604C69.0403 16.444 68.9482 16.216 68.9482 15.92C68.9482 15.648 69.0403 15.428 69.2243 15.26C69.4163 15.084 69.6763 14.996 70.0043 14.996C70.3243 14.996 70.5763 15.08 70.7603 15.248C70.9443 15.408 71.0363 15.632 71.0363 15.92C71.0363 16.2 70.9443 16.424 70.7603 16.592C70.5763 16.76 70.3203 16.844 69.9923 16.844ZM72.6879 24.5V18.152H74.3319L74.3799 19.448L74.0439 19.592C74.1239 19.304 74.2799 19.044 74.5119 18.812C74.7439 18.572 75.0199 18.38 75.3399 18.236C75.6599 18.092 75.9919 18.02 76.3359 18.02C76.8159 18.02 77.2159 18.116 77.5359 18.308C77.8639 18.5 78.1079 18.792 78.2679 19.184C78.4359 19.568 78.5199 20.048 78.5199 20.624V24.5H76.8159V20.744C76.8159 20.456 76.7759 20.216 76.6959 20.024C76.6159 19.832 76.4959 19.692 76.3359 19.604C76.1759 19.516 75.9719 19.476 75.7239 19.484C75.5319 19.484 75.3559 19.516 75.1959 19.58C75.0359 19.636 74.8919 19.72 74.7639 19.832C74.6439 19.944 74.5519 20.072 74.4879 20.216C74.4239 20.36 74.3919 20.52 74.3919 20.696V24.5H73.5399C73.3639 24.5 73.2039 24.5 73.0599 24.5C72.9159 24.5 72.7919 24.5 72.6879 24.5ZM82.6488 24.62C82.0968 24.62 81.5968 24.48 81.1488 24.2C80.7088 23.92 80.3608 23.532 80.1048 23.036C79.8568 22.532 79.7328 21.964 79.7328 21.332C79.7328 20.692 79.8568 20.124 80.1048 19.628C80.3608 19.132 80.7088 18.74 81.1488 18.452C81.5888 18.164 82.0888 18.02 82.6488 18.02C82.9448 18.02 83.2288 18.068 83.5008 18.164C83.7808 18.252 84.0288 18.376 84.2448 18.536C84.4608 18.696 84.6368 18.876 84.7728 19.076C84.9088 19.268 84.9888 19.468 85.0128 19.676L84.5808 19.76V15.62H86.2728V24.5H84.6648L84.5928 23.036L84.9288 23.084C84.9208 23.276 84.8528 23.464 84.7248 23.648C84.5968 23.832 84.4248 24 84.2088 24.152C84.0008 24.296 83.7608 24.412 83.4888 24.5C83.2248 24.58 82.9448 24.62 82.6488 24.62ZM83.0208 23.204C83.3488 23.204 83.6288 23.124 83.8608 22.964C84.1008 22.804 84.2888 22.584 84.4248 22.304C84.5608 22.024 84.6288 21.7 84.6288 21.332C84.6288 20.956 84.5608 20.628 84.4248 20.348C84.2888 20.06 84.1008 19.84 83.8608 19.688C83.6288 19.528 83.3488 19.448 83.0208 19.448C82.7088 19.448 82.4328 19.528 82.1928 19.688C81.9528 19.84 81.7648 20.06 81.6288 20.348C81.5008 20.628 81.4368 20.956 81.4368 21.332C81.4368 21.7 81.5008 22.024 81.6288 22.304C81.7648 22.584 81.9528 22.804 82.1928 22.964C82.4328 23.124 82.7088 23.204 83.0208 23.204ZM90.9343 24.62C90.2463 24.62 89.6423 24.48 89.1223 24.2C88.6103 23.92 88.2103 23.536 87.9223 23.048C87.6423 22.56 87.5023 22.004 87.5023 21.38C87.5023 20.884 87.5823 20.432 87.7423 20.024C87.9023 19.608 88.1263 19.252 88.4143 18.956C88.7023 18.66 89.0423 18.432 89.4343 18.272C89.8343 18.104 90.2703 18.02 90.7423 18.02C91.1743 18.02 91.5703 18.1 91.9303 18.26C92.2983 18.412 92.6143 18.632 92.8783 18.92C93.1503 19.2 93.3583 19.532 93.5023 19.916C93.6463 20.3 93.7143 20.72 93.7063 21.176L93.6943 21.704H88.5943L88.3183 20.648H92.2903L92.0863 20.864V20.612C92.0703 20.388 91.9983 20.192 91.8703 20.024C91.7503 19.856 91.5943 19.724 91.4023 19.628C91.2103 19.524 90.9983 19.472 90.7663 19.472C90.4063 19.472 90.1023 19.544 89.8543 19.688C89.6143 19.824 89.4303 20.024 89.3023 20.288C89.1823 20.544 89.1223 20.864 89.1223 21.248C89.1223 21.624 89.2023 21.956 89.3623 22.244C89.5223 22.524 89.7503 22.74 90.0463 22.892C90.3503 23.044 90.7063 23.12 91.1143 23.12C91.3943 23.12 91.6503 23.076 91.8823 22.988C92.1143 22.9 92.3663 22.748 92.6383 22.532L93.4423 23.672C93.2183 23.872 92.9663 24.044 92.6863 24.188C92.4063 24.332 92.1183 24.44 91.8223 24.512C91.5263 24.584 91.2303 24.62 90.9343 24.62ZM94.9653 24.5V18.152H96.6093L96.6693 20.192L96.3813 19.76C96.4853 19.44 96.6413 19.148 96.8493 18.884C97.0653 18.62 97.3173 18.412 97.6053 18.26C97.9013 18.1 98.2093 18.02 98.5293 18.02C98.6733 18.02 98.8053 18.032 98.9253 18.056C99.0533 18.072 99.1613 18.1 99.2493 18.14L98.7933 20C98.7053 19.96 98.5893 19.924 98.4453 19.892C98.3093 19.852 98.1693 19.832 98.0253 19.832C97.8413 19.832 97.6653 19.868 97.4973 19.94C97.3373 20.004 97.1933 20.1 97.0653 20.228C96.9453 20.348 96.8493 20.492 96.7773 20.66C96.7133 20.828 96.6813 21.016 96.6813 21.224V24.5H94.9653ZM102.363 24.62C101.779 24.62 101.255 24.524 100.791 24.332C100.335 24.14 99.963 23.868 99.675 23.516L100.743 22.604C100.991 22.868 101.263 23.06 101.559 23.18C101.863 23.292 102.171 23.348 102.483 23.348C102.595 23.348 102.699 23.336 102.795 23.312C102.891 23.28 102.975 23.24 103.047 23.192C103.119 23.136 103.171 23.072 103.203 23C103.243 22.928 103.263 22.844 103.263 22.748C103.263 22.572 103.191 22.436 103.047 22.34C102.983 22.292 102.863 22.24 102.687 22.184C102.519 22.12 102.303 22.052 102.039 21.98C101.631 21.876 101.287 21.756 101.007 21.62C100.727 21.476 100.499 21.312 100.323 21.128C100.179 20.976 100.067 20.8 99.987 20.6C99.915 20.4 99.879 20.18 99.879 19.94C99.879 19.556 99.991 19.22 100.215 18.932C100.439 18.644 100.735 18.42 101.103 18.26C101.479 18.1 101.887 18.02 102.327 18.02C102.655 18.02 102.971 18.06 103.275 18.14C103.587 18.22 103.875 18.336 104.139 18.488C104.411 18.632 104.647 18.804 104.847 19.004L103.935 20.024C103.791 19.88 103.627 19.756 103.443 19.652C103.259 19.54 103.075 19.452 102.891 19.388C102.707 19.316 102.539 19.28 102.387 19.28C102.251 19.28 102.127 19.292 102.015 19.316C101.911 19.34 101.823 19.38 101.751 19.436C101.679 19.484 101.623 19.544 101.583 19.616C101.551 19.688 101.535 19.768 101.535 19.856C101.535 19.944 101.555 20.028 101.595 20.108C101.643 20.18 101.707 20.248 101.787 20.312C101.867 20.36 101.995 20.416 102.171 20.48C102.355 20.544 102.591 20.616 102.879 20.696C103.263 20.8 103.587 20.916 103.851 21.044C104.115 21.172 104.327 21.32 104.487 21.488C104.631 21.632 104.731 21.8 104.787 21.992C104.851 22.176 104.883 22.376 104.883 22.592C104.883 22.984 104.771 23.336 104.547 23.648C104.331 23.952 104.031 24.192 103.647 24.368C103.271 24.536 102.843 24.62 102.363 24.62Z" fill="white"/>
</svg>
