<svg width="24" height="24" viewBox="0 0 24 24" fill="none" xmlns="http://www.w3.org/2000/svg">
<circle cx="11.1238" cy="5.52813" r="0.651181" fill="#171717" fill-opacity="0.3"/>
<path d="M19.171 6.71217L20.5708 21.6083L7.26168 21.6083L8.39278 11.6254C8.44153 11.1951 8.13924 10.8041 7.71058 10.743L5.84488 10.4768C4.61513 10.3014 3.6603 9.31543 3.52444 8.08068L3.44298 7.34037M13.8751 2.56612C14.0827 1.80327 14.9316 2.09977 15.4524 2.38742C15.9428 2.65828 16.6991 2.74384 17.0159 2.75277C19.9494 2.78617 19.8337 4.47735 19.5901 5.42201C19.3465 6.36666 18.0464 10.2579 16.1093 11.1619C14.5596 11.885 14.178 11.0532 14.1809 10.5468L13.8362 3.34711L13.8306 3.07681C13.8217 2.86943 13.8384 2.70117 13.8751 2.56612ZM13.8751 2.56612L10.5624 2.76784C9.8039 2.81403 9.18243 3.38717 9.07511 4.13945L9.03325 4.43291C9.01113 4.58794 8.8801 4.70422 8.72353 4.70774L4.8768 4.79431M4.8768 4.79431L3.98183 4.81445C3.50117 4.82527 3.13847 5.25443 3.20792 5.73016L3.44298 7.34037M4.8768 4.79431C5.0109 5.06364 5.09915 5.7856 4.55165 6.39643C4.09782 6.90275 3.58536 7.27076 3.44298 7.34037" stroke="#171717" stroke-opacity="0.3" stroke-width="1.39966"/>
<path d="M8.51073 16.5604L19.3877 16.498L19.6009 18.9529L8.25391 19.0154L8.51073 16.5604Z" fill="#171717" fill-opacity="0.3"/>
</svg>
