<svg width="16" height="16" viewBox="0 0 16 16" fill="none" xmlns="http://www.w3.org/2000/svg">
<g clip-path="url(#clip0_12_131)">
<rect x="0.999985" y="3" width="14" height="10" rx="2" fill="#E0E0E0"/>
<path d="M7.33592 1.33203L9.33592 3.33203L7.33592 5.33203" fill="#E0E0E0"/>
<path d="M8.66926 14.6654L6.66926 12.6654L8.66926 10.6654" fill="#E0E0E0"/>
<path d="M7.33592 1.33203L9.33592 3.33203M9.33592 3.33203L7.33592 5.33203M9.33592 3.33203H4.53592C3.41582 3.33203 2.85576 3.33203 2.42794 3.55002C2.05162 3.74176 1.74566 4.04773 1.55391 4.42405C1.33592 4.85187 1.33592 5.41193 1.33592 6.53203V10.332C1.33592 10.6416 1.33592 10.7965 1.35303 10.9264C1.47119 11.8239 2.1774 12.5301 3.07487 12.6483C3.20484 12.6654 3.35964 12.6654 3.66926 12.6654M6.66926 12.6654H11.4693C12.5894 12.6654 13.1494 12.6654 13.5772 12.4474C13.9536 12.2556 14.2595 11.9497 14.4513 11.5733C14.6693 11.1455 14.6693 10.5855 14.6693 9.46536V5.66536C14.6693 5.35575 14.6693 5.20094 14.6521 5.07098C14.534 4.17351 13.8278 3.4673 12.9303 3.34914C12.8003 3.33203 12.6455 3.33203 12.3359 3.33203M6.66926 12.6654L8.66926 14.6654M6.66926 12.6654L8.66926 10.6654" stroke="#3E3D45" stroke-width="1.3" stroke-linecap="round" stroke-linejoin="round"/>
</g>
<defs>
<clipPath id="clip0_12_131">
<rect width="16" height="16" fill="white"/>
</clipPath>
</defs>
</svg>
