<svg width="24" height="24" viewBox="0 0 24 24" fill="none" xmlns="http://www.w3.org/2000/svg">
<rect x="1" y="1" width="22" height="22" rx="11" fill="white"/>
<rect x="1" y="1" width="22" height="22" rx="11" stroke="#E3E3E4"/>
<path d="M6.34057 12.2107C6.62532 11.4218 7.36831 10.8912 8.20695 10.8778L16.8053 10.7411C17.7119 10.7267 18.5168 11.3185 18.7733 12.1882L19.2266 13.7249C19.6079 15.018 18.6387 16.3142 17.2906 16.3142H7.73377C6.33515 16.3142 5.36047 14.9262 5.83529 13.6107L6.34057 12.2107Z" fill="#1E6AAE"/>
<path d="M6.11605 12.1018C6.35721 11.226 7.15364 10.6193 8.06197 10.6193H16.5182C17.4265 10.6193 18.2229 11.226 18.4641 12.1018L18.8434 13.4793C19.1973 14.7644 18.2304 16.0335 16.8975 16.0335H7.68263C6.34971 16.0335 5.38282 14.7644 5.73671 13.4793L6.11605 12.1018Z" fill="#547CBA"/>
<path d="M12.0665 8.42157C8.69375 6.21964 7.63195 8.96062 7.52264 10.6064H17.3304C16.972 7.84902 14.9145 8.27264 13.9305 8.82913C13.1945 8.11874 12.3812 8.26143 12.0665 8.42157Z" fill="#DA8A70"/>
<path d="M9.11823 9.37684L9.61261 9.7274M11.631 8.84036L11.1779 9.25235M12.1872 10.035L12.5786 9.91137M13.6498 9.25235L13.9381 9.7274M15.6479 9.54058L15.4007 9.91137" stroke="black" stroke-width="0.807341"/>
<path d="M13.255 13.8349H11.3254C11.3168 13.9635 11.2686 14.0811 11.193 14.1762C11.0805 14.3176 10.9067 14.4084 10.7117 14.4084C10.3719 14.4084 10.0965 14.133 10.0965 13.7932C10.0965 13.6054 10.1807 13.4375 10.3133 13.3245C10.1807 13.2115 10.0965 13.0436 10.0965 12.8558C10.0965 12.5161 10.3719 12.2406 10.7117 12.2406C11.0322 12.2406 11.2954 12.4857 11.3241 12.7989H13.2563C13.285 12.4857 13.5483 12.2406 13.8689 12.2406C14.2086 12.2406 14.484 12.5161 14.484 12.8558C14.484 13.0436 14.4 13.2111 14.2676 13.3241C14.4003 13.4371 14.484 13.6054 14.484 13.7932C14.484 14.133 14.2086 14.4084 13.8689 14.4084C13.5432 14.4084 13.2765 14.1552 13.255 13.8349Z" fill="#171717"/>
</svg>
